<svg width="0" height="0" class="hidden">
  <symbol fill="none" xmlns="http://www.w3.org/2000/svg" viewBox="0 0 327 372" id="bg-pattern-detail-footer">
    <rect width="327" height="372" rx="6" fill="#5964E0"></rect>
    <mask id="a" maskUnits="userSpaceOnUse" x="0" y="0" width="327" height="372">
      <rect width="327" height="372" rx="6" fill="#fff"></rect>
    </mask>
    <g mask="url(#a)">
      <path opacity=".081" fill-rule="evenodd" clip-rule="evenodd" d="M267.502 166.576c21.126-23.963 60.326-15.63 69.879 14.853l114.118 364.163c9.381 29.936-16.963 58.887-47.649 52.364L37.362 520.057c-30.685-6.522-42.976-43.685-22.23-67.217l252.37-286.264z" fill="#fff"></path>
    </g>
  </symbol>
  <symbol xmlns="http://www.w3.org/2000/svg" xmlns:xlink="http://www.w3.org/1999/xlink" viewBox="0 0 375 136" id="bg-pattern-header">
    <defs>
      <path id="a" d="M0 0h375v136H0z"></path>
    </defs>
    <g fill="none" fill-rule="evenodd">
      <mask id="b" fill="#fff">
        <use xlink:href="#a"></use>
      </mask>
      <use fill="#5964E0" transform="matrix(-1 0 0 1 375 0)" xlink:href="#a"></use>
      <g mask="url(#b)" fill="#FFF" opacity=".081">
        <path d="M313.06-362.235l344.16 164.899c20.42 9.784 29.043 34.27 19.259 54.69a41 41 0 01-13.459 15.87L356.104 88.129c-18.548 12.988-44.114 8.48-57.102-10.069a41 41 0 01-7.219-19.515L254.54-321.26c-2.21-22.535 14.268-42.595 36.803-44.805a41 41 0 0121.717 3.83zM-12.94 32.765l344.16 164.899c20.42 9.784 29.043 34.27 19.259 54.69a41 41 0 01-13.459 15.87L30.104 483.129c-18.548 12.988-44.114 8.48-57.102-10.069a41 41 0 01-7.219-19.515L-71.46 73.74c-2.21-22.535 14.268-42.595 36.803-44.805a41 41 0 0121.717 3.83z"></path>
      </g>
    </g>
  </symbol>
  <symbol xmlns="http://www.w3.org/2000/svg" viewBox="0 0 20 20" id="icon-filter">
    <path d="M19.108 0H.86a.86.86 0 00-.764.455.833.833 0 00.068.884l6.685 9.202.007.01c.242.32.374.708.375 1.107v7.502a.825.825 0 00.248.594.865.865 0 00.942.18l3.756-1.4c.337-.1.56-.41.56-.784v-6.092c0-.399.132-.787.375-1.108l.007-.009 6.685-9.202c.19-.26.217-.6.068-.884A.86.86 0 0019.108 0z" fill="#6E8098" fill-rule="nonzero"></path>
  </symbol>
</svg>